HIERARCHY
ROOT Hips
{
 OFFSET 0.000000 0.000000 0.000000
 CHANNELS 6 Xposition Yposition Zposition Yrotation Xrotation Zrotation
 JOINT Chest
 {
  OFFSET 0.000000 9.857222 0.000240
  CHANNELS 3 Yrotation Xrotation Zrotation
  JOINT Chest2
  {
   OFFSET 0.000000 10.876940 -0.000436
   CHANNELS 3 Yrotation Xrotation Zrotation
   JOINT Chest3
   {
    OFFSET 0.000000 9.827798 0.000000
    CHANNELS 3 Yrotation Xrotation Zrotation
    JOINT Chest4
    {
     OFFSET 0.000000 9.827798 0.000000
     CHANNELS 3 Yrotation Xrotation Zrotation
     JOINT Neck
     {
      OFFSET 0.000000 13.831992 0.000000
      CHANNELS 3 Yrotation Xrotation Zrotation
      JOINT Head
      {
       OFFSET 0.000000 9.147643 -0.001036
       CHANNELS 3 Yrotation Xrotation Zrotation
       End Site
       {
        OFFSET 0.000000 17.515799 -0.000541
       }
      }
     }
     JOINT RightCollar
     {
      OFFSET -3.001579 7.717577 0.000000
      CHANNELS 3 Yrotation Xrotation Zrotation
      JOINT RightShoulder
      {
       OFFSET -14.002642 0.000000 0.000000
       CHANNELS 3 Yrotation Xrotation Zrotation
       JOINT RightElbow
       {
        OFFSET -30.053852 0.000000 0.000000
        CHANNELS 3 Yrotation Xrotation Zrotation
        JOINT RightWrist
        {
         OFFSET -24.564923 0.000000 -0.000000
         CHANNELS 3 Yrotation Xrotation Zrotation
         End Site
         {
          OFFSET -18.334355 0.000000 0.000000
         }
        }
       }
      }
     }
     JOINT LeftCollar
     {
      OFFSET 3.001579 7.717577 0.000000
      CHANNELS 3 Yrotation Xrotation Zrotation
      JOINT LeftShoulder
      {
       OFFSET 14.002642 0.000000 0.000000
       CHANNELS 3 Yrotation Xrotation Zrotation
       JOINT LeftElbow
       {
        OFFSET 30.053852 0.000000 0.000000
        CHANNELS 3 Yrotation Xrotation Zrotation
        JOINT LeftWrist
        {
         OFFSET 24.564923 0.000000 -0.000000
         CHANNELS 3 Yrotation Xrotation Zrotation
         End Site
         {
          OFFSET 18.334355 0.000000 0.000000
         }
        }
       }
      }
     }
    }
   }
  }
 }
 JOINT RightHip
 {
  OFFSET -8.003235 -0.001175 -0.000120
  CHANNELS 3 Yrotation Xrotation Zrotation
  JOINT RightKnee
  {
   OFFSET 0.000000 -41.759727 0.000113
   CHANNELS 3 Yrotation Xrotation Zrotation
   JOINT RightAnkle
   {
    OFFSET 0.000000 -40.728748 0.000159
    CHANNELS 3 Yrotation Xrotation Zrotation
    JOINT RightToe
    {
     OFFSET 0.000000 -6.515296 14.732841
     CHANNELS 3 Yrotation Xrotation Zrotation
     End Site
     {
      OFFSET 0.000000 -1.502839 6.412115
     }
    }
   }
  }
 }
 JOINT LeftHip
 {
  OFFSET 8.003235 -0.001175 -0.000120
  CHANNELS 3 Yrotation Xrotation Zrotation
  JOINT LeftKnee
  {
   OFFSET 0.000000 -41.759727 0.000113
   CHANNELS 3 Yrotation Xrotation Zrotation
   JOINT LeftAnkle
   {
    OFFSET 0.000000 -40.728748 0.000159
    CHANNELS 3 Yrotation Xrotation Zrotation
    JOINT LeftToe
    {
     OFFSET 0.000000 -6.515296 14.732841
     CHANNELS 3 Yrotation Xrotation Zrotation
     End Site
     {
      OFFSET 0.000000 -1.502839 6.412115
     }
    }
   }
  }
 }
}
MOTION
Frames: 17
Frame Time: 0.016667
0.000000 88.822259 0.000000 0.000000 -5.826342 0.000000 0.000000 11.116423 0.000000 0.000000 -5.290081 0.000000 0.000000 0.000000 0.000000 0.000000 0.000000 0.000000 0.000000 12.665069 0.000000 0.000000 0.575450 0.000000 0.000000 0.000000 0.000000 0.000000 0.000000 0.000000 2.337306 0.000000 0.000000 -2.337306 0.000000 0.000000 0.000000 0.000000 0.000000 0.000000 0.000000 0.000000 -2.337306 0.000000 0.000000 2.337306 0.000000 0.000000 0.000000 8.578828 0.000000 0.000000 1.905768 0.000000 0.000000 -4.658254 0.000000 0.000000 0.000000 0.000000 0.000000 8.578828 0.000000 0.000000 1.905768 0.000000 0.000000 -4.658254 0.000000 0.000000 0.000000 0.000000
19.263682 90.467760 30.854127 -33.248102 -15.730401 -1.044649 0.791559 8.497503 0.480689 0.717569 3.354606 0.161692 0.717569 3.354606 0.161692 0.537135 2.516149 0.117292 -7.374354 21.527684 2.606842 -14.087584 4.417161 6.786503 7.556749 3.210766 10.155762 42.747767 -7.423281 84.296904 13.881040 5.814450 -2.323805 -7.113739 4.898658 -7.266047 -25.525216 6.976095 -12.373729 -25.054972 10.783528 -60.359257 -19.936206 -33.693394 -6.541537 -0.957856 13.032917 3.722810 6.853100 24.999258 -3.890374 -4.023371 -4.150227 4.057809 -3.935331 -4.755313 1.282492 1.463804 -0.264191 0.724124 9.942433 15.216956 4.596614 0.464864 6.508538 0.674561 0.653220 -5.990907 -1.417631 -0.191114 0.103132 0.019822
19.299804 90.462031 30.962902 -33.107392 -15.870554 -0.961199 0.622158 8.624484 0.369240 0.712887 3.349837 0.157051 0.712887 3.349837 0.157051 0.533651 2.512565 0.113843 -7.371114 21.532052 2.598021 -14.078907 4.423624 6.769223 7.560254 3.199694 10.168093 42.735828 -7.457678 84.333303 13.686680 5.834719 -2.236925 -7.121188 4.920914 -7.243873 -25.510807 6.936676 -12.387155 -25.009738 10.849153 -60.270310 -19.732520 -33.664589 -6.745142 -0.856112 13.070564 3.774796 6.199827 25.320258 -4.330389 -3.762060 -4.369371 4.223509 -3.849237 -4.694771 1.294986 1.436458 -0.282920 0.681656 9.542528 15.399041 4.377882 0.471905 6.583897 0.682484 0.790942 -6.017898 -1.411308 -0.183407 0.033747 0.019259
19.356885 90.454991 31.057711 -32.952676 -15.968441 -0.920081 0.479483 8.730868 0.305300 0.706136 3.343621 0.150019 0.706136 3.343621 0.150019 0.528630 2.507893 0.108615 -7.371122 21.524565 2.592631 -14.078071 4.409050 6.760374 7.552983 3.187711 10.179997 42.754249 -7.481556 84.373694 13.458053 5.832870 -2.145116 -7.134507 4.951978 -7.237234 -25.496728 6.925303 -12.392783 -25.029689 10.895977 -60.167128 -19.578270 -33.735049 -6.858405 -0.802213 13.089771 3.806559 5.579639 25.591046 -4.692559 -3.675626 -4.616191 4.372296 -3.745275 -4.572213 1.277288 1.500000 -0.319411 0.680696 9.133038 15.497380 4.139146 0.340747 6.696794 0.739076 1.009662 -6.066469 -1.424599 -0.177062 -0.009632 0.027770
19.429761 90.449642 31.135312 -32.767772 -16.069203 -0.922027 0.338443 8.848700 0.280001 0.703428 3.334873 0.143709 0.703428 3.334873 0.143709 0.526637 2.501324 0.103909 -7.376359 21.514468 2.586915 -14.086819 4.390234 6.752655 7.561597 3.136238 10.194820 42.783202 -7.426197 84.415936 13.257451 5.762062 -2.030475 -7.156266 4.969424 -7.244666 -25.486536 6.928579 -12.396193 -25.088992 10.964567 -60.027644 -19.512443 -33.878549 -6.947450 -0.847718 13.035881 3.870575 4.910300 25.861455 -5.026515 -3.646872 -4.891276 4.539139 -3.638156 -4.426096 1.210528 1.651736 -0.349290 0.721436 8.672110 15.568061 3.908969 0.252176 6.834472 0.842370 1.178003 -6.136964 -1.456324 -0.181586 -0.025301 0.029776
19.501076 90.451873 31.229604 -32.443749 -16.309649 -0.889574 0.071924 9.109058 0.181653 0.705276 3.327612 0.139447 0.705276 3.327612 0.139447 0.528048 2.495874 0.100712 -7.381141 21.506209 2.577090 -14.093448 4.374188 6.737194 7.592284 3.054368 10.207900 42.783477 -7.314000 84.507160 13.087519 5.704399 -1.984829 -7.115979 4.962647 -7.211738 -25.465714 6.940975 -12.393083 -25.208552 11.005693 -59.923913 -19.587679 -34.065301 -6.872088 -1.040397 12.949317 4.005579 4.046234 26.284565 -5.417692 -3.386308 -5.162464 4.629071 -3.775891 -4.283533 1.177475 1.809258 -0.404492 0.767788 8.025790 15.775404 3.629005 0.266158 6.985189 0.899320 1.264375 -6.150243 -1.456708 -0.178211 -0.090400 0.037271
19.560933 90.456106 31.320385 -32.096693 -16.552315 -0.859581 -0.198544 9.382345 0.076492 0.711078 3.320206 0.135112 0.711078 3.320206 0.135112 0.532424 2.490316 0.097439 -7.382767 21.500949 2.567480 -14.094171 4.363340 6.720918 7.645086 2.915781 10.229071 42.715188 -7.143548 84.657076 12.951150 5.701107 -1.974713 -6.826649 4.957885 -7.219301 -25.435763 6.943453 -12.386728 -25.421810 11.072396 -59.857254 -19.885510 -34.266816 -6.573166 -1.479126 12.822706 4.332874 3.194303 26.689488 -5.793252 -2.980955 -5.409450 4.665292 -4.016289 -4.162469 1.166793 1.964571 -0.459635 0.814552 7.377025 15.981289 3.352814 0.334958 7.134990 0.960940 1.326139 -6.165760 -1.450310 -0.174678 -0.147300 0.031123
19.610842 90.457186 31.387465 -31.854684 -16.648071 -0.849389 -0.341817 9.522805 0.025847 0.718399 3.308496 0.128407 0.718399 3.308496 0.128407 0.537954 2.481527 0.092386 -7.380429 21.501033 2.562292 -14.088497 4.362500 6.710922 7.700208 2.795813 10.254490 42.631079 -6.974273 84.788811 12.850875 5.755545 -1.935079 -6.001425 5.125530 -7.553098 -25.422275 6.931048 -12.393442 -25.608504 11.168598 -59.798279 -20.521251 -34.302371 -5.861359 -2.287927 12.654864 4.892417 2.575822 26.909824 -6.075301 -2.638644 -5.605452 4.695118 -4.179928 -4.095313 1.177357 2.059818 -0.477263 0.836195 6.887258 16.018895 3.118757 0.429633 7.295963 1.060144 1.342550 -6.186338 -1.474369 -0.169540 -0.194343 0.025955
19.662800 90.453161 31.432938 -31.685870 -16.573011 -0.824931 -0.409218 9.542539 -0.012448 0.723084 3.279550 0.119130 0.723084 3.279550 0.119130 0.541525 2.459808 0.085439 -7.371108 21.504963 2.562972 -14.071497 4.368748 6.709169 7.752424 2.702126 10.274868 42.590812 -6.820015 84.920020 12.839959 5.808620 -1.962145 -4.646932 5.475180 -8.320059 -25.423692 6.931981 -12.419197 -25.692102 11.211855 -59.763861 -21.557079 -34.249053 -4.004159 -3.414095 12.483926 5.072413 2.198660 26.917276 -6.312113 -2.476792 -5.724452 4.759604 -4.237218 -4.081393 1.213620 2.076466 -0.459754 0.828799 6.479963 15.876201 2.881696 0.545183 7.462065 1.157506 1.327219 -6.235191 -1.479127 -0.161980 -0.207900 0.006631
19.706925 90.443828 31.442910 -31.613769 -16.388309 -0.836733 -0.371978 9.461190 0.006749 0.727435 3.248481 0.109399 0.727435 3.248481 0.109399 0.544848 2.436495 0.078157 -7.360358 21.508506 2.571180 -14.054036 4.375148 6.720642 7.802374 2.589924 10.305919 42.702813 -6.553230 85.120774 13.141113 5.701767 -2.251213 -3.307496 5.655948 -9.156503 -25.431500 6.947417 -12.452063 -25.670140 11.233287 -59.792824 -22.842177 -34.213109 -1.673692 -4.643658 12.504923 5.499184 2.174883 26.778911 -6.355502 -2.489481 -5.797558 4.796798 -4.253396 -4.090807 1.242616 2.083977 -0.415558 0.826662 6.278968 15.613188 2.745544 0.595780 7.606588 1.241828 1.308424 -6.308702 -1.468254 -0.154559 -0.175083 -0.024748
19.730165 90.437907 31.430747 -31.612019 -16.217388 -0.875054 -0.265412 9.350756 0.059672 0.733476 3.234280 0.100736 0.733476 3.234280 0.100736 0.549427 2.425835 0.071647 -7.350955 21.509440 2.586012 -14.041073 4.377801 6.744724 7.844468 2.480371 10.346074 42.769854 -6.234544 85.346970 13.660385 5.581742 -2.616227 -2.270032 5.477636 -9.965210 -25.432193 6.977463 -12.493806 -25.589013 11.313450 -59.890029 -24.358477 -34.088434 1.182798 -5.699490 12.421912 5.798125 2.433726 26.629017 -6.229029 -2.603919 -5.825979 4.800551 -4.312862 -4.106836 1.261664 2.084603 -0.375758 0.827298 6.322585 15.363723 2.712396 0.625755 7.720338 1.351863 1.217660 -6.367157 -1.468033 -0.147894 -0.139432 -0.059794
19.728365 90.442508 31.414676 -31.614090 -16.134764 -0.907245 -0.166071 9.276851 0.094445 0.739858 3.239594 0.093469 0.739858 3.239594 0.093469 0.554250 2.429813 0.066158 -7.343755 21.511751 2.604744 -14.033054 4.383796 6.776273 7.882204 2.401535 10.380082 42.456016 -6.031451 85.553807 14.188080 5.583314 -3.017965 -1.569935 5.452662 -10.459410 -25.433109 7.005905 -12.545047 -25.430646 11.532683 -60.009571 -25.948254 -33.810259 3.908949 -6.850880 11.789831 6.329582 2.653797 26.560348 -6.089533 -2.700192 -5.841445 4.766391 -4.365323 -4.099549 1.293934 2.065340 -0.366675 0.820721 6.426458 15.232820 2.725811 0.666204 7.772406 1.443607 1.107079 -6.364593 -1.467128 -0.142329 -0.135004 -0.092476
19.719380 90.449399 31.391331 -31.656371 -15.997570 -0.917719 -0.035652 9.150041 0.111967 0.740807 3.246137 0.087478 0.740807 3.246137 0.087478 0.554991 2.434713 0.061652 -7.339182 21.512078 2.622465 -14.029674 4.386302 6.806940 7.889752 2.298350 10.396809 42.028538 -5.871131 85.844424 14.678033 5.834089 -3.487862 -0.938017 5.285127 -10.890020 -25.400105 7.012890 -12.577214 -25.098767 11.760332 -60.201909 -27.866826 -34.390377 6.894429 -7.954239 11.347513 6.364759 2.885458 26.443188 -6.004914 -2.791509 -5.866616 4.765358 -4.282827 -4.106761 1.350028 1.958303 -0.342649 0.779374 6.597961 15.071394 2.767447 0.613554 7.776992 1.461505 1.071806 -6.334908 -1.443836 -0.139821 -0.133328 -0.115043
19.715734 90.454661 31.388353 -31.630324 -15.868620 -0.868844 0.012040 9.052875 0.054835 0.733487 3.240185 0.079753 0.733487 3.240185 0.079753 0.549545 2.430239 0.055907 -7.334137 21.517086 2.633606 -14.023211 4.396487 6.825078 7.899864 2.149662 10.420644 41.663350 -5.641400 86.201269 15.250078 6.093391 -4.003276 -0.146162 5.421496 -11.586689 -25.343218 7.025740 -12.607594 -24.607671 12.019706 -60.475281 -30.335379 -35.722576 10.262289 -9.086565 10.896990 5.912686 2.955544 26.352824 -6.072045 -2.788026 -5.904301 4.783910 -4.158056 -4.112408 1.445694 1.786322 -0.330255 0.706876 6.660805 14.941034 2.725210 0.568874 7.761157 1.459155 1.027646 -6.275965 -1.408787 -0.130867 -0.154572 -0.126497
19.725709 90.454656 31.400139 -31.622139 -15.714049 -0.802934 0.063849 8.932685 -0.004531 0.723481 3.228279 0.068331 0.723481 3.228279 0.068331 0.542106 2.421294 0.047409 -7.329157 21.521905 2.637510 -14.014877 4.405335 6.830213 7.961759 1.974143 10.491951 41.284805 -5.391921 86.684934 15.875788 6.479296 -4.711104 0.633076 6.129637 -12.528369 -25.262626 7.031416 -12.622658 -24.085687 12.314148 -60.868698 -33.478233 -37.703120 13.748280 -9.899034 11.013282 5.234655 3.019184 26.227394 -6.187781 -2.796315 -5.912593 4.824754 -4.014078 -4.149594 1.559261 1.600846 -0.303458 0.624898 6.758746 14.794673 2.634850 0.468124 7.743254 1.498604 1.027224 -6.234614 -1.385870 -0.125717 -0.168106 -0.133201
19.732967 90.453595 31.404479 -31.637455 -15.532475 -0.797085 0.161494 8.775841 0.019729 0.707426 3.223258 0.053600 0.707426 3.223258 0.053600 0.530147 2.417509 0.036455 -7.324553 21.514197 2.638397 -14.007464 4.390670 6.831452 8.119243 1.694790 10.652321 40.721535 -4.993459 87.134991 16.707890 7.035566 -5.608608 1.152808 6.661190 -13.361062 -25.158696 7.007937 -12.625753 -23.461931 12.663342 -61.301050 -36.592706 -38.479481 16.449795 -10.383627 10.545621 4.988181 3.186033 26.064933 -6.161231 -2.914690 -5.903350 4.834644 -3.924007 -4.193104 1.630317 1.512335 -0.269937 0.584282 6.879773 14.595507 2.606890 0.299882 7.769880 1.539809 1.067290 -6.247679 -1.370857 -0.125095 -0.154950 -0.140520
19.746880 90.458073 31.433556 -31.528351 -15.434861 -0.774067 0.147754 8.704606 0.014876 0.676281 3.222018 0.039182 0.676281 3.222018 0.039182 0.506870 2.416561 0.025810 -7.311149 21.484961 2.636907 -13.985336 4.334863 6.828495 8.262661 1.247303 10.851704 39.736890 -4.410085 87.395822 17.749906 7.797631 -6.399793 1.615083 6.733817 -13.691877 -25.024632 6.945748 -12.637945 -22.580103 12.992496 -61.686692 -39.847537 -38.697215 18.654005 -10.623637 10.461349 4.689528 3.133805 26.034991 -6.226051 -3.009008 -5.963397 4.856893 -3.823818 -4.159766 1.671055 1.488828 -0.290551 0.573490 6.897812 14.472511 2.513263 0.088099 7.822890 1.606388 1.135988 -6.238132 -1.350204 -0.127382 -0.176545 -0.149842
